<?xml version="1.0" standalone="no"?>
<!DOCTYPE svg PUBLIC "-//W3C//DTD SVG 20010904//EN"
 "http://www.w3.org/TR/2001/REC-SVG-20010904/DTD/svg10.dtd">
<svg version="1.0" xmlns="http://www.w3.org/2000/svg"
 width="225.000000pt" height="225.000000pt" viewBox="0 0 225.000000 225.000000"
 preserveAspectRatio="xMidYMid meet">

<g transform="translate(0.000000,225.000000) scale(0.100000,-0.100000)"
fill="#000000" stroke="none">
<path d="M883 1916 c-64 -21 -125 -60 -172 -111 -166 -181 -107 -478 118 -587
60 -30 74 -33 161 -33 82 0 103 4 152 27 237 111 298 407 122 597 -73 79 -150
114 -259 118 -48 2 -97 -3 -122 -11z"/>
<path d="M681 1125 c-51 -19 -118 -49 -148 -67 -72 -43 -147 -126 -167 -184
-22 -65 -38 -195 -34 -284 l3 -75 40 -7 c22 -4 230 -7 462 -7 l422 -1 13 24
c7 13 86 101 176 195 185 193 178 173 94 263 -55 59 -136 105 -254 147 l-88
30 -47 -25 c-105 -54 -225 -53 -328 2 -25 13 -47 24 -48 24 -1 -1 -44 -16 -96
-35z"/>
<path d="M1653 891 l-62 -68 93 -92 92 -92 68 70 c37 39 66 76 64 83 -5 20
-163 168 -179 168 -8 0 -42 -31 -76 -69z"/>
<path d="M1437 668 l-126 -133 92 -92 92 -93 58 58 c32 31 90 92 129 135 l71
78 -89 90 c-49 49 -92 89 -95 89 -4 0 -63 -60 -132 -132z"/>
<path d="M1254 395 c-28 -83 -35 -118 -27 -126 7 -7 43 0 128 26 l118 37 -89
89 c-49 49 -89 89 -91 89 -1 0 -19 -52 -39 -115z"/>
</g>
</svg>
