<?xml version="1.0" standalone="no"?>
<!DOCTYPE svg PUBLIC "-//W3C//DTD SVG 20010904//EN"
 "http://www.w3.org/TR/2001/REC-SVG-20010904/DTD/svg10.dtd">
<svg version="1.0" xmlns="http://www.w3.org/2000/svg"
 width="225.000000pt" height="225.000000pt" viewBox="0 0 225.000000 225.000000"
 preserveAspectRatio="xMidYMid meet">

<g transform="translate(0.000000,225.000000) scale(0.100000,-0.100000)"
fill="#000000" stroke="none">
<path d="M215 1845 c-36 -35 -34 -88 4 -126 l29 -29 877 0 877 0 29 29 c38 38
40 91 4 126 l-24 25 -886 0 -886 0 -24 -25z"/>
<path d="M1291 1484 c-166 -45 -303 -183 -340 -345 -40 -171 29 -366 166 -473
138 -110 331 -131 488 -56 l60 29 125 -124 c77 -75 136 -126 154 -131 64 -16
131 55 108 115 -4 13 -64 79 -132 147 l-124 124 21 38 c40 71 56 147 51 252
-3 88 -7 104 -41 172 -100 204 -324 309 -536 252z m214 -190 c96 -33 185 -157
185 -258 0 -98 -61 -200 -150 -250 -49 -28 -64 -31 -135 -31 -70 0 -87 4 -134
30 -91 50 -142 138 -144 247 -1 55 4 76 29 124 31 62 99 123 158 142 49 16
138 14 191 -4z"/>
<path d="M265 1399 c-76 -13 -101 -94 -46 -150 l29 -29 267 0 267 0 29 29 c38
38 40 91 4 126 -13 14 -32 25 -42 25 -166 5 -479 4 -508 -1z"/>
<path d="M238 924 c-57 -30 -65 -98 -18 -145 l30 -30 226 3 226 3 24 28 c42
49 22 125 -37 146 -51 18 -417 14 -451 -5z"/>
<path d="M244 460 c-56 -22 -71 -99 -30 -147 l24 -28 415 0 415 0 26 24 c36
34 36 98 0 132 l-26 24 -401 2 c-221 1 -412 -2 -423 -7z"/>
</g>
</svg>
