<?xml version="1.0" standalone="no"?>
<!DOCTYPE svg PUBLIC "-//W3C//DTD SVG 20010904//EN"
 "http://www.w3.org/TR/2001/REC-SVG-20010904/DTD/svg10.dtd">
<svg version="1.0" xmlns="http://www.w3.org/2000/svg"
 width="225.000000pt" height="225.000000pt" viewBox="0 0 225.000000 225.000000"
 preserveAspectRatio="xMidYMid meet">

<g transform="translate(0.000000,225.000000) scale(0.100000,-0.100000)"
fill="#000000" stroke="none">
<path d="M840 2173 c-317 -114 -403 -573 -153 -819 78 -78 146 -107 257 -112
110 -5 180 17 259 82 110 89 167 205 174 356 9 166 -34 288 -136 391 -83 82
-153 113 -265 116 -64 2 -104 -2 -136 -14z"/>
<path d="M496 1087 c-115 -62 -226 -127 -246 -145 -137 -114 -88 -335 82 -372
31 -6 244 -10 568 -10 l519 0 -35 57 c-28 47 -34 67 -34 112 1 159 159 273
298 216 82 -35 3 16 -188 121 -107 58 -207 113 -221 121 -25 15 -31 14 -95
-12 -120 -48 -274 -45 -376 6 -21 11 -43 19 -50 19 -7 0 -107 -51 -222 -113z"/>
<path d="M1528 813 c-33 -21 -56 -73 -50 -115 3 -19 26 -53 64 -94 l60 -64
-61 -65 c-59 -64 -67 -80 -62 -140 1 -11 17 -35 36 -52 59 -56 112 -43 200 46
l49 51 56 -54 c30 -29 65 -59 77 -65 54 -27 126 0 149 56 23 53 10 89 -59 160
l-60 63 60 63 c36 37 63 75 67 94 15 65 -41 133 -109 133 -38 0 -74 -22 -130
-79 l-49 -51 -62 61 c-53 53 -68 62 -105 65 -31 3 -52 -1 -71 -13z"/>
</g>
</svg>
